<svg width="236" height="200" viewBox="0 0 236 200" fill="none" xmlns="http://www.w3.org/2000/svg">
<circle opacity="0.2" cx="118" cy="100" r="104" stroke="url(#paint0_linear)" stroke-width="28"/>
<g filter="url(#filter0_ii)">
<circle cx="118" cy="100" r="86" fill="#6FDAFF" fill-opacity="0.1"/>
</g>
<circle cx="118" cy="100" r="86" stroke="#DCDCDC" stroke-width="9"/>
<g filter="url(#filter1_dd)">
<circle cx="118.002" cy="99.9987" r="57.8571" fill="#FBFBFB"/>
</g>
<path d="M117 14C155.428 14 187.971 39.2105 199 74" stroke="url(#paint1_linear)" stroke-width="9" stroke-linecap="round"/>
<path d="M79.8229 78.45C79.9763 78.0433 80.1496 77.6833 80.3429 77.37C80.5429 77.05 80.7696 76.78 81.0229 76.56C81.2829 76.34 81.5696 76.1733 81.8829 76.06C82.2029 75.94 82.5563 75.88 82.9429 75.88C83.1496 75.88 83.3529 75.9 83.5529 75.94C83.7529 75.9733 83.9296 76.0367 84.0829 76.13L84.0029 76.79C83.9696 76.8967 83.9063 76.95 83.8129 76.95C83.7329 76.95 83.6096 76.9267 83.4429 76.88C83.2829 76.8333 83.0696 76.81 82.8029 76.81C82.4163 76.81 82.0729 76.87 81.7729 76.99C81.4796 77.1033 81.2129 77.2767 80.9729 77.51C80.7396 77.7433 80.5329 78.0333 80.3529 78.38C80.1796 78.72 80.0196 79.1133 79.8729 79.56V86H78.9129V76.05H79.4229C79.5363 76.05 79.6163 76.0733 79.6629 76.12C79.7096 76.1667 79.7396 76.2467 79.7529 76.36L79.8229 78.45ZM87.0433 76.05V86H86.0933V76.05H87.0433ZM87.4533 72.62C87.4533 72.74 87.4266 72.8533 87.3733 72.96C87.3266 73.06 87.2633 73.15 87.1833 73.23C87.1033 73.31 87.0099 73.3733 86.9033 73.42C86.7966 73.4667 86.6833 73.49 86.5633 73.49C86.4433 73.49 86.3299 73.4667 86.2233 73.42C86.1166 73.3733 86.0233 73.31 85.9433 73.23C85.8633 73.15 85.7999 73.06 85.7533 72.96C85.7066 72.8533 85.6833 72.74 85.6833 72.62C85.6833 72.5 85.7066 72.3867 85.7533 72.28C85.7999 72.1667 85.8633 72.07 85.9433 71.99C86.0233 71.91 86.1166 71.8467 86.2233 71.8C86.3299 71.7533 86.4433 71.73 86.5633 71.73C86.6833 71.73 86.7966 71.7533 86.9033 71.8C87.0099 71.8467 87.1033 71.91 87.1833 71.99C87.2633 72.07 87.3266 72.1667 87.3733 72.28C87.4266 72.3867 87.4533 72.5 87.4533 72.62ZM95.9064 77.28C95.8531 77.3733 95.7764 77.42 95.6764 77.42C95.6031 77.42 95.5097 77.38 95.3964 77.3C95.2831 77.2133 95.1297 77.12 94.9364 77.02C94.7497 76.9133 94.5164 76.82 94.2364 76.74C93.9564 76.6533 93.6164 76.61 93.2164 76.61C92.8564 76.61 92.5264 76.6633 92.2264 76.77C91.9331 76.87 91.6797 77.0067 91.4664 77.18C91.2597 77.3533 91.0997 77.5567 90.9864 77.79C90.8731 78.0167 90.8164 78.2567 90.8164 78.51C90.8164 78.8233 90.8964 79.0833 91.0564 79.29C91.2164 79.4967 91.4231 79.6733 91.6764 79.82C91.9364 79.9667 92.2331 80.0933 92.5664 80.2C92.8997 80.3067 93.2364 80.4133 93.5764 80.52C93.9231 80.6267 94.2631 80.7467 94.5964 80.88C94.9297 81.0067 95.2231 81.1667 95.4764 81.36C95.7364 81.5533 95.9464 81.79 96.1064 82.07C96.2664 82.35 96.3464 82.69 96.3464 83.09C96.3464 83.5233 96.2697 83.9267 96.1164 84.3C95.9631 84.6733 95.7364 84.9967 95.4364 85.27C95.1431 85.5433 94.7797 85.76 94.3464 85.92C93.9131 86.08 93.4164 86.16 92.8564 86.16C92.1564 86.16 91.5531 86.05 91.0464 85.83C90.5397 85.6033 90.0864 85.31 89.6864 84.95L89.9064 84.61C89.9397 84.5567 89.9764 84.5167 90.0164 84.49C90.0631 84.4633 90.1231 84.45 90.1964 84.45C90.2831 84.45 90.3864 84.5033 90.5064 84.61C90.6331 84.7167 90.7997 84.8333 91.0064 84.96C91.2131 85.08 91.4664 85.1933 91.7664 85.3C92.0731 85.4067 92.4497 85.46 92.8964 85.46C93.3164 85.46 93.6864 85.4033 94.0064 85.29C94.3264 85.17 94.5931 85.01 94.8064 84.81C95.0197 84.61 95.1797 84.3767 95.2864 84.11C95.3997 83.8367 95.4564 83.55 95.4564 83.25C95.4564 82.9167 95.3764 82.64 95.2164 82.42C95.0564 82.2 94.8464 82.0133 94.5864 81.86C94.3264 81.7067 94.0297 81.5767 93.6964 81.47C93.3697 81.3633 93.0331 81.2567 92.6864 81.15C92.3397 81.0433 91.9997 80.9267 91.6664 80.8C91.3397 80.6733 91.0464 80.5133 90.7864 80.32C90.5264 80.1267 90.3164 79.8933 90.1564 79.62C89.9964 79.34 89.9164 78.9933 89.9164 78.58C89.9164 78.2267 89.9931 77.8867 90.1464 77.56C90.2997 77.2333 90.5164 76.9467 90.7964 76.7C91.0831 76.4533 91.4297 76.2567 91.8364 76.11C92.2431 75.9633 92.6997 75.89 93.2064 75.89C93.8131 75.89 94.3497 75.9767 94.8164 76.15C95.2897 76.3233 95.7197 76.59 96.1064 76.95L95.9064 77.28ZM99.8925 71.45V80.32H100.352C100.446 80.32 100.532 80.3067 100.612 80.28C100.699 80.2533 100.792 80.19 100.892 80.09L104.882 76.3C104.949 76.22 105.022 76.16 105.102 76.12C105.182 76.0733 105.282 76.05 105.402 76.05H106.242L101.852 80.22C101.732 80.36 101.602 80.47 101.462 80.55C101.569 80.6033 101.659 80.6667 101.732 80.74C101.812 80.8067 101.889 80.8867 101.962 80.98L106.572 86H105.742C105.649 86 105.562 85.9867 105.482 85.96C105.409 85.9267 105.339 85.8633 105.272 85.77L101.092 81.29C101.039 81.23 100.986 81.18 100.932 81.14C100.886 81.1 100.836 81.07 100.782 81.05C100.729 81.0233 100.666 81.0067 100.592 81C100.526 80.9867 100.442 80.98 100.342 80.98H99.8925V86H98.9325V71.45H99.8925ZM113.894 80.44H122.174V81.18H113.894V80.44ZM113.894 77.31H122.174V78.05H113.894V77.31Z" fill="#808080"/>
<path d="M129.05 71.14V86H126.58V71.14H129.05ZM136.051 75.58C136.811 75.58 137.501 75.7033 138.121 75.95C138.747 76.1967 139.281 76.5467 139.721 77C140.167 77.4533 140.511 78.0067 140.751 78.66C140.991 79.3133 141.111 80.0433 141.111 80.85C141.111 81.6633 140.991 82.3967 140.751 83.05C140.511 83.7033 140.167 84.26 139.721 84.72C139.281 85.18 138.747 85.5333 138.121 85.78C137.501 86.0267 136.811 86.15 136.051 86.15C135.284 86.15 134.587 86.0267 133.961 85.78C133.334 85.5333 132.797 85.18 132.351 84.72C131.911 84.26 131.567 83.7033 131.321 83.05C131.081 82.3967 130.961 81.6633 130.961 80.85C130.961 80.0433 131.081 79.3133 131.321 78.66C131.567 78.0067 131.911 77.4533 132.351 77C132.797 76.5467 133.334 76.1967 133.961 75.95C134.587 75.7033 135.284 75.58 136.051 75.58ZM136.051 84.25C136.904 84.25 137.534 83.9633 137.941 83.39C138.354 82.8167 138.561 81.9767 138.561 80.87C138.561 79.7633 138.354 78.92 137.941 78.34C137.534 77.76 136.904 77.47 136.051 77.47C135.184 77.47 134.541 77.7633 134.121 78.35C133.707 78.93 133.501 79.77 133.501 80.87C133.501 81.97 133.707 82.81 134.121 83.39C134.541 83.9633 135.184 84.25 136.051 84.25ZM157.469 75.74L154.209 86H152.229C152.002 86 151.846 85.8533 151.759 85.56L149.919 79.63C149.859 79.43 149.802 79.2333 149.749 79.04C149.702 78.84 149.662 78.64 149.629 78.44C149.589 78.64 149.542 78.8433 149.489 79.05C149.442 79.25 149.389 79.45 149.329 79.65L147.459 85.56C147.379 85.8533 147.202 86 146.929 86H145.029L141.779 75.74H143.749C143.929 75.74 144.082 75.7833 144.209 75.87C144.336 75.9567 144.419 76.0667 144.459 76.2L145.929 81.68C146.002 81.98 146.066 82.2733 146.119 82.56C146.179 82.8467 146.229 83.1333 146.269 83.42C146.342 83.1333 146.419 82.8467 146.499 82.56C146.586 82.2733 146.676 81.98 146.769 81.68L148.469 76.18C148.509 76.0467 148.586 75.9367 148.699 75.85C148.819 75.7633 148.962 75.72 149.129 75.72H150.219C150.392 75.72 150.539 75.7633 150.659 75.85C150.786 75.9367 150.869 76.0467 150.909 76.18L152.559 81.68C152.646 81.98 152.726 82.2767 152.799 82.57C152.879 82.8567 152.956 83.1433 153.029 83.43C153.116 82.8633 153.239 82.28 153.399 81.68L154.909 76.2C154.956 76.0667 155.039 75.9567 155.159 75.87C155.279 75.7833 155.422 75.74 155.589 75.74H157.469Z" fill="#666666"/>
<path d="M94.2422 104.76C95.5755 104.76 96.7755 104.953 97.8422 105.34C98.9222 105.713 99.8422 106.24 100.602 106.92C101.362 107.587 101.942 108.373 102.342 109.28C102.756 110.187 102.962 111.167 102.962 112.22C102.962 113.14 102.856 113.953 102.642 114.66C102.442 115.353 102.142 115.96 101.742 116.48C101.356 117 100.876 117.44 100.302 117.8C99.7422 118.16 99.1022 118.46 98.3822 118.7C100.116 119.247 101.409 120.08 102.262 121.2C103.116 122.32 103.542 123.727 103.542 125.42C103.542 126.86 103.276 128.133 102.742 129.24C102.209 130.347 101.489 131.28 100.582 132.04C99.6755 132.787 98.6222 133.353 97.4222 133.74C96.2355 134.127 94.9755 134.32 93.6422 134.32C92.1889 134.32 90.9222 134.153 89.8422 133.82C88.7622 133.487 87.8222 132.993 87.0222 132.34C86.2222 131.687 85.5422 130.887 84.9822 129.94C84.4222 128.993 83.9422 127.9 83.5422 126.66L85.7222 125.76C86.0955 125.6 86.4755 125.52 86.8622 125.52C87.2089 125.52 87.5155 125.593 87.7822 125.74C88.0622 125.887 88.2755 126.1 88.4222 126.38C88.6622 126.847 88.9222 127.307 89.2022 127.76C89.4955 128.213 89.8422 128.62 90.2422 128.98C90.6422 129.327 91.1089 129.613 91.6422 129.84C92.1889 130.053 92.8355 130.16 93.5822 130.16C94.4222 130.16 95.1555 130.027 95.7822 129.76C96.4089 129.48 96.9289 129.12 97.3422 128.68C97.7689 128.24 98.0822 127.753 98.2822 127.22C98.4955 126.673 98.6022 126.127 98.6022 125.58C98.6022 124.887 98.5289 124.26 98.3822 123.7C98.2355 123.127 97.9289 122.64 97.4622 122.24C96.9955 121.84 96.3222 121.527 95.4422 121.3C94.5755 121.073 93.4089 120.96 91.9422 120.96V117.44C93.1555 117.427 94.1622 117.313 94.9622 117.1C95.7622 116.887 96.3955 116.593 96.8622 116.22C97.3422 115.833 97.6755 115.373 97.8622 114.84C98.0489 114.307 98.1422 113.72 98.1422 113.08C98.1422 111.707 97.7689 110.673 97.0222 109.98C96.2755 109.273 95.2555 108.92 93.9622 108.92C92.7889 108.92 91.8155 109.233 91.0422 109.86C90.2689 110.473 89.7289 111.267 89.4222 112.24C89.2622 112.747 89.0422 113.113 88.7622 113.34C88.4822 113.553 88.1155 113.66 87.6622 113.66C87.4489 113.66 87.2222 113.64 86.9822 113.6L84.3822 113.14C84.5822 111.753 84.9689 110.54 85.5422 109.5C86.1155 108.447 86.8289 107.573 87.6822 106.88C88.5489 106.173 89.5355 105.647 90.6422 105.3C91.7622 104.94 92.9622 104.76 94.2422 104.76ZM123.785 123.1H127.425V125.96C127.425 126.227 127.339 126.46 127.165 126.66C126.992 126.847 126.739 126.94 126.405 126.94H123.785V134H119.465V126.94H107.265C106.932 126.94 106.639 126.84 106.385 126.64C106.132 126.427 105.972 126.167 105.905 125.86L105.405 123.36L119.105 105.06H123.785V123.1ZM119.465 113.64C119.465 113.213 119.479 112.753 119.505 112.26C119.532 111.767 119.579 111.253 119.645 110.72L110.665 123.1H119.465V113.64ZM142.728 112.08C142.728 113.173 142.542 114.16 142.168 115.04C141.808 115.92 141.322 116.673 140.708 117.3C140.095 117.913 139.382 118.387 138.568 118.72C137.755 119.053 136.908 119.22 136.028 119.22C135.068 119.22 134.182 119.053 133.368 118.72C132.555 118.387 131.848 117.913 131.248 117.3C130.662 116.673 130.202 115.92 129.868 115.04C129.535 114.16 129.368 113.173 129.368 112.08C129.368 110.96 129.535 109.947 129.868 109.04C130.202 108.133 130.662 107.367 131.248 106.74C131.848 106.113 132.555 105.633 133.368 105.3C134.182 104.953 135.068 104.78 136.028 104.78C136.988 104.78 137.875 104.953 138.688 105.3C139.515 105.633 140.228 106.113 140.828 106.74C141.428 107.367 141.895 108.133 142.228 109.04C142.562 109.947 142.728 110.96 142.728 112.08ZM138.908 112.08C138.908 111.307 138.835 110.66 138.688 110.14C138.542 109.62 138.335 109.2 138.068 108.88C137.815 108.56 137.508 108.333 137.148 108.2C136.802 108.053 136.428 107.98 136.028 107.98C135.628 107.98 135.255 108.053 134.908 108.2C134.562 108.333 134.262 108.56 134.008 108.88C133.755 109.2 133.555 109.62 133.408 110.14C133.275 110.66 133.208 111.307 133.208 112.08C133.208 112.827 133.275 113.453 133.408 113.96C133.555 114.453 133.755 114.853 134.008 115.16C134.262 115.467 134.562 115.687 134.908 115.82C135.255 115.953 135.628 116.02 136.028 116.02C136.428 116.02 136.802 115.953 137.148 115.82C137.508 115.687 137.815 115.467 138.068 115.16C138.335 114.853 138.542 114.453 138.688 113.96C138.835 113.453 138.908 112.827 138.908 112.08ZM152.348 105.86C152.508 105.66 152.708 105.48 152.948 105.32C153.188 105.16 153.522 105.08 153.948 105.08H157.528L136.048 133.26C135.888 133.473 135.682 133.653 135.428 133.8C135.188 133.933 134.895 134 134.548 134H130.868L152.348 105.86ZM159.048 127.2C159.048 128.293 158.862 129.28 158.488 130.16C158.128 131.04 157.642 131.793 157.028 132.42C156.415 133.033 155.702 133.513 154.888 133.86C154.075 134.193 153.228 134.36 152.348 134.36C151.388 134.36 150.502 134.193 149.688 133.86C148.875 133.513 148.168 133.033 147.568 132.42C146.982 131.793 146.522 131.04 146.188 130.16C145.855 129.28 145.688 128.293 145.688 127.2C145.688 126.08 145.855 125.067 146.188 124.16C146.522 123.253 146.982 122.487 147.568 121.86C148.168 121.233 148.875 120.753 149.688 120.42C150.502 120.073 151.388 119.9 152.348 119.9C153.308 119.9 154.195 120.073 155.008 120.42C155.835 120.753 156.548 121.233 157.148 121.86C157.748 122.487 158.215 123.253 158.548 124.16C158.882 125.067 159.048 126.08 159.048 127.2ZM155.248 127.2C155.248 126.427 155.168 125.78 155.008 125.26C154.862 124.74 154.655 124.32 154.388 124C154.135 123.68 153.828 123.453 153.468 123.32C153.122 123.173 152.748 123.1 152.348 123.1C151.948 123.1 151.575 123.173 151.228 123.32C150.882 123.453 150.582 123.68 150.328 124C150.088 124.32 149.895 124.74 149.748 125.26C149.602 125.78 149.528 126.427 149.528 127.2C149.528 127.947 149.602 128.573 149.748 129.08C149.895 129.587 150.088 129.993 150.328 130.3C150.582 130.607 150.882 130.827 151.228 130.96C151.575 131.093 151.948 131.16 152.348 131.16C152.748 131.16 153.122 131.093 153.468 130.96C153.828 130.827 154.135 130.607 154.388 130.3C154.655 129.993 154.862 129.587 155.008 129.08C155.168 128.573 155.248 127.947 155.248 127.2Z" fill="url(#paint2_linear)"/>
<defs>
<filter id="filter0_ii" x="23.5" y="5.5" width="189" height="189" filterUnits="userSpaceOnUse" color-interpolation-filters="sRGB">
<feFlood flood-opacity="0" result="BackgroundImageFix"/>
<feBlend mode="normal" in="SourceGraphic" in2="BackgroundImageFix" result="shape"/>
<feColorMatrix in="SourceAlpha" type="matrix" values="0 0 0 0 0 0 0 0 0 0 0 0 0 0 0 0 0 0 127 0" result="hardAlpha"/>
<feOffset dx="4" dy="4"/>
<feGaussianBlur stdDeviation="4"/>
<feComposite in2="hardAlpha" operator="arithmetic" k2="-1" k3="1"/>
<feColorMatrix type="matrix" values="0 0 0 0 0 0 0 0 0 0 0 0 0 0 0 0 0 0 0.25 0"/>
<feBlend mode="normal" in2="shape" result="effect1_innerShadow"/>
<feColorMatrix in="SourceAlpha" type="matrix" values="0 0 0 0 0 0 0 0 0 0 0 0 0 0 0 0 0 0 127 0" result="hardAlpha"/>
<feOffset dx="-4" dy="-4"/>
<feGaussianBlur stdDeviation="4"/>
<feComposite in2="hardAlpha" operator="arithmetic" k2="-1" k3="1"/>
<feColorMatrix type="matrix" values="0 0 0 0 1 0 0 0 0 1 0 0 0 0 1 0 0 0 0.5 0"/>
<feBlend mode="normal" in2="effect1_innerShadow" result="effect2_innerShadow"/>
</filter>
<filter id="filter1_dd" x="48.1449" y="30.1416" width="143.714" height="143.714" filterUnits="userSpaceOnUse" color-interpolation-filters="sRGB">
<feFlood flood-opacity="0" result="BackgroundImageFix"/>
<feColorMatrix in="SourceAlpha" type="matrix" values="0 0 0 0 0 0 0 0 0 0 0 0 0 0 0 0 0 0 127 0" result="hardAlpha"/>
<feOffset dx="4" dy="4"/>
<feGaussianBlur stdDeviation="6"/>
<feColorMatrix type="matrix" values="0 0 0 0 0 0 0 0 0 0 0 0 0 0 0 0 0 0 0.25 0"/>
<feBlend mode="normal" in2="BackgroundImageFix" result="effect1_dropShadow"/>
<feColorMatrix in="SourceAlpha" type="matrix" values="0 0 0 0 0 0 0 0 0 0 0 0 0 0 0 0 0 0 127 0" result="hardAlpha"/>
<feOffset dx="-4" dy="-4"/>
<feGaussianBlur stdDeviation="4"/>
<feColorMatrix type="matrix" values="0 0 0 0 1 0 0 0 0 1 0 0 0 0 1 0 0 0 1 0"/>
<feBlend mode="normal" in2="effect1_dropShadow" result="effect2_dropShadow"/>
<feBlend mode="normal" in="SourceGraphic" in2="effect2_dropShadow" result="shape"/>
</filter>
<linearGradient id="paint0_linear" x1="45.2333" y1="-0.300003" x2="192.733" y2="203.25" gradientUnits="userSpaceOnUse">
<stop stop-color="#6FDAFF"/>
<stop offset="1" stop-color="#7369FD"/>
</linearGradient>
<linearGradient id="paint1_linear" x1="132.717" y1="18.5" x2="165.381" y2="80.1046" gradientUnits="userSpaceOnUse">
<stop stop-color="#6FDAFF"/>
<stop offset="1" stop-color="#7369FD"/>
</linearGradient>
<linearGradient id="paint2_linear" x1="95.7167" y1="102.85" x2="110.801" y2="147.77" gradientUnits="userSpaceOnUse">
<stop stop-color="#6FDAFF"/>
<stop offset="1" stop-color="#7369FD"/>
</linearGradient>
</defs>
</svg>
